<?xml version="1.0" standalone="no"?>
<!DOCTYPE svg PUBLIC "-//W3C//DTD SVG 20010904//EN" "http://www.w3.org/TR/2001/REC-SVG-20010904/DTD/svg10.dtd">
<!-- Created using Krita: https://krita.org -->
<svg xmlns="http://www.w3.org/2000/svg" 
    xmlns:xlink="http://www.w3.org/1999/xlink"
    xmlns:krita="http://krita.org/namespaces/svg/krita"
    xmlns:sodipodi="http://sodipodi.sourceforge.net/DTD/sodipodi-0.dtd"
    width="737.28pt"
    height="737.28pt"
    viewBox="0 0 737.28 737.28">
<defs/>
<path id="shape0" transform="matrix(0.719999942779545 0 0 0.719999942779545 1.46484363631316e-05 1.46484363773425e-05)" fill="#000000" stroke-opacity="0" stroke="#000000" stroke-width="0" stroke-linecap="square" stroke-linejoin="bevel" d="M1024 512C1024 229.23 794.77 1.73141e-14 512 0C229.23 -1.73141e-14 3.46282e-14 229.23 0 512C-3.46282e-14 794.77 229.23 1024 512 1024C794.77 1024 1024 794.77 1024 512Z" sodipodi:nodetypes="ccccc"/><path id="shape01" transform="matrix(0 0.719999955907894 0.719999955907894 0 169.559172370995 169.569678585509)" fill="#ffffff" stroke-opacity="0" stroke="#000000" stroke-width="0" stroke-linecap="square" stroke-linejoin="bevel" d="M31.6804 181.351C30.3085 181.359 28.9486 181.094 27.6804 180.571C26.0531 179.881 24.6375 178.772 23.5783 177.357C22.5192 175.942 21.8538 174.271 21.6505 172.515C21.4471 170.759 21.7128 168.981 22.4204 167.361C43.7631 117.681 79.2169 75.3356 124.372 45.5925C169.527 15.8494 222.43 -0.00518224 276.5 0.000950591C315.974 -0.103108 355.006 8.33727 390.91 24.741C393.344 25.8385 395.244 27.8601 396.189 30.3571C397.134 32.8542 397.048 35.6272 395.95 38.061C394.853 40.4947 392.831 42.3948 390.334 43.3396C387.837 44.2844 385.064 44.1985 382.63 43.101C341.117 24.2515 295.32 16.8053 249.974 21.5322C204.628 26.2592 161.351 42.9905 124.618 69.9964C87.8854 97.0023 59.0075 133.319 40.9704 175.191C40.2082 177.024 38.9174 178.589 37.2632 179.685C35.609 180.782 33.6651 181.362 31.6804 181.351ZM56.7604 437.141C55.1285 437.143 53.5205 436.746 52.0773 435.985C50.6342 435.223 49.3991 434.12 48.4804 432.771C16.8249 386.821 -0.089765 332.299 0.000358274 276.501C-0.0198512 254.482 2.5716 232.539 7.72036 211.131C8.17768 209.01 9.30709 207.092 10.94 205.664C12.5729 204.235 14.6239 203.371 16.7867 203.199C18.9495 203.028 21.111 203.559 22.9485 204.712C24.786 205.866 26.2034 207.582 26.989 209.604C27.7746 211.627 27.8873 213.849 27.3104 215.941C22.5679 235.779 20.1648 256.104 20.1504 276.501C20.0669 328.261 35.7263 378.842 65.0404 421.501C66.0463 422.952 66.6525 424.644 66.7978 426.404C66.9431 428.164 66.6224 429.931 65.8681 431.528C65.1138 433.125 63.9521 434.495 62.5004 435.501C60.7775 436.572 58.789 437.14 56.7604 437.141ZM276.5 553.001C240.001 553.113 203.842 545.943 170.147 531.911C136.452 517.88 105.892 497.266 80.2604 471.281C78.3754 469.393 77.3164 466.831 77.3182 464.164C77.3201 461.496 78.3827 458.936 80.2704 457.051C82.158 455.166 84.7198 454.107 87.3874 454.109C90.055 454.111 92.6154 455.173 94.5004 457.061C135.706 498.551 189.881 524.736 247.993 531.249C306.104 537.762 364.732 524.22 414.1 492.881C453.991 467.419 486.129 431.479 506.99 389.001C508.162 386.615 510.236 384.79 512.752 383.932C515.268 383.073 518.024 383.249 520.41 384.421C522.796 385.593 524.621 387.667 525.48 390.182C526.338 392.698 526.162 395.455 524.99 397.841C502.268 444.381 466.918 483.612 422.988 511.042C379.058 538.472 328.291 553.014 276.5 553.001ZM532.18 361.801C531.228 361.816 530.28 361.664 529.38 361.351C527.678 360.854 526.136 359.916 524.913 358.632C523.689 357.348 522.826 355.764 522.411 354.039C521.996 352.315 522.044 350.511 522.55 348.811C537.597 297.531 536.24 242.807 518.671 192.335C501.103 141.863 468.186 98.1249 424.55 67.271C422.384 65.728 420.918 63.3853 420.478 60.7627C420.037 58.14 420.657 55.4469 422.2 53.281C423.743 51.115 426.086 49.6491 428.709 49.2085C431.331 48.768 434.024 49.388 436.19 50.931C471.629 76.1103 500.689 109.236 521.04 147.651C554.581 211.256 562.036 285.497 541.81 354.501C541.221 356.601 539.961 358.452 538.223 359.77C536.484 361.088 534.362 361.801 532.18 361.801ZM349.82 77.351C348.679 77.3289 347.547 77.1402 346.46 76.791C341.46 75.001 336.16 73.431 331.01 71.981C328.428 71.297 326.221 69.6134 324.879 67.3038C323.537 64.9943 323.166 62.2432 323.85 59.661C324.534 57.0787 326.218 54.8716 328.527 53.5294C330.837 52.1871 333.588 51.817 336.17 52.501C341.88 54.071 347.59 55.751 353.07 57.761C354.75 58.3363 356.247 59.3488 357.405 60.6939C358.564 62.039 359.344 63.6687 359.665 65.415C359.986 67.1613 359.836 68.9619 359.23 70.631C358.572 72.5989 357.309 74.3093 355.621 75.516C353.933 76.7228 351.905 77.3652 349.83 77.351ZM152.69 102.761C150.53 102.759 148.426 102.066 146.688 100.783C144.95 99.5002 143.668 97.6939 143.03 95.63C142.391 93.5661 142.431 91.3512 143.142 89.3112C143.852 87.2712 145.198 85.5115 146.98 84.291C185.233 58.4816 230.355 44.717 276.5 44.781C284.67 44.781 292.84 45.231 301.02 46.011C303.535 46.4539 305.79 47.8363 307.326 49.8766C308.861 51.9169 309.566 54.4664 309.295 57.0057C309.025 59.5449 307.799 61.8889 305.869 63.56C303.938 65.2311 301.442 66.1077 298.89 66.011C249.397 60.9244 199.649 73.2837 158.29 100.941C156.663 102.125 154.702 102.762 152.69 102.761ZM113.96 136.011C111.425 136.019 108.98 135.056 107.13 133.321C105.175 131.508 104.017 128.991 103.912 126.327C103.807 123.662 104.764 121.062 106.57 119.101C110.57 114.731 114.97 110.481 119.33 106.341C121.29 104.53 123.891 103.571 126.556 103.676C129.222 103.781 131.74 104.942 133.55 106.901C135.361 108.86 136.32 111.461 136.215 114.127C136.11 116.793 134.95 119.31 132.99 121.121C128.99 124.811 125.04 128.731 121.35 132.761C120.405 133.777 119.261 134.589 117.991 135.148C116.72 135.707 115.348 136.001 113.96 136.011ZM55.9604 264.861L54.9604 264.861C52.304 264.595 49.8578 263.289 48.1595 261.229C46.4611 259.17 45.645 256.519 45.8904 253.861C49.7147 215.136 63.2281 177.991 85.1804 145.861C86.386 144.112 88.1153 142.788 90.1189 142.082C92.1225 141.375 94.2994 141.321 96.3357 141.927C98.372 142.533 100.165 143.769 101.456 145.456C102.747 147.143 103.471 149.197 103.524 151.321C103.577 153.445 102.956 155.532 101.75 157.281C81.6664 186.596 69.3409 220.53 65.9304 255.901C65.6731 258.361 64.5117 260.641 62.6726 262.295C60.8334 263.95 58.4442 264.864 55.9704 264.861ZM56.5204 313.861C54.0582 313.878 51.6745 312.984 49.8297 311.353C47.9849 309.723 46.8059 307.467 46.5204 305.021C45.7404 299.021 45.2904 292.931 44.9504 286.771C44.8553 284.644 45.4365 282.54 46.61 280.763C47.7835 278.986 49.4902 277.626 51.484 276.878C53.4779 276.13 55.6582 276.033 57.7107 276.6C59.7633 277.167 61.5844 278.37 62.9117 280.035C64.239 281.7 65.0053 283.744 65.1004 285.871C65.3204 291.471 65.7704 297.061 66.4404 302.551C66.7598 305.19 66.0203 307.852 64.385 309.948C62.7496 312.044 60.3482 313.409 57.7104 313.741C57.3072 313.833 56.8934 313.87 56.4804 313.851ZM171.37 481.661C169.687 481.678 168.029 481.254 166.56 480.431C110.92 450.321 69.3904 398.261 52.9404 337.371C52.2431 334.803 52.5948 332.061 53.9173 329.752C55.2399 327.444 57.4277 325.753 59.9954 325.056C62.563 324.359 65.3054 324.71 67.614 326.033C69.9226 327.355 71.6131 329.543 72.3104 332.111C79.924 359.753 93.041 385.575 110.873 408.026C128.706 430.477 150.889 449.099 176.09 462.771C177.649 463.61 178.956 464.848 179.88 466.358C180.803 467.868 181.309 469.597 181.346 471.366C181.383 473.136 180.95 474.884 180.09 476.431C179.269 478.027 178.021 479.363 176.485 480.292C174.949 481.221 173.185 481.705 171.39 481.691ZM213.68 499.121C212.728 499.136 211.78 498.984 210.88 498.671C206.51 497.331 202.04 495.871 197.67 494.301C195.544 493.685 193.68 492.384 192.368 490.601C191.056 488.818 190.368 486.651 190.412 484.438C190.456 482.225 191.23 480.087 192.612 478.358C193.994 476.628 195.909 475.403 198.058 474.872C200.207 474.341 202.472 474.534 204.5 475.421C208.42 476.881 212.56 478.221 216.59 479.341C218.914 480.041 220.911 481.554 222.213 483.602C223.514 485.651 224.037 488.1 223.684 490.502C223.332 492.903 222.127 495.099 220.291 496.686C218.455 498.274 216.107 499.149 213.68 499.151ZM276.48 508.191C265.355 508.196 254.244 507.411 243.23 505.841C240.588 505.455 238.206 504.034 236.61 501.893C235.015 499.753 234.335 497.063 234.72 494.421C235.106 491.779 236.527 489.396 238.668 487.801C240.809 486.205 243.498 485.525 246.14 485.911C278.286 490.471 311.051 487.678 341.96 477.741C344.498 476.924 347.258 477.149 349.629 478.366C352.001 479.583 353.794 481.694 354.61 484.231C355.427 486.768 355.202 489.529 353.985 491.9C352.769 494.271 350.658 496.064 348.12 496.881C324.991 504.398 300.821 508.225 276.5 508.221ZM372.48 486.361C370.201 486.36 367.987 485.585 366.205 484.163C364.423 482.741 363.175 480.755 362.668 478.532C362.16 476.31 362.423 473.979 363.411 471.925C364.399 469.871 366.057 468.211 368.11 467.221C373.11 464.761 378.18 462.221 383 459.271C385.3 457.92 388.045 457.538 390.627 458.209C393.208 458.88 395.42 460.551 396.77 462.851C398.121 465.151 398.503 467.896 397.832 470.477C397.161 473.059 395.49 475.27 393.19 476.621C387.899 479.78 382.445 482.658 376.85 485.241C375.512 485.977 374.008 486.362 372.48 486.361ZM413.56 460.611C412.035 460.608 410.53 460.264 409.154 459.605C407.779 458.946 406.568 457.988 405.61 456.801C404.513 455.419 403.802 453.771 403.547 452.025C403.293 450.279 403.506 448.496 404.163 446.859C404.82 445.221 405.899 443.787 407.29 442.701C432.476 422.968 452.829 397.745 466.796 368.959C480.762 340.173 487.978 308.576 487.89 276.581C487.9 266.66 487.232 256.75 485.89 246.921C485.705 244.361 486.499 241.824 488.112 239.828C489.725 237.832 492.039 236.522 494.581 236.166C497.122 235.81 499.707 236.434 501.806 237.911C503.905 239.387 505.366 241.609 505.89 244.121C507.364 254.878 508.112 265.723 508.13 276.581C508.224 311.636 500.317 346.254 485.013 377.792C469.708 409.33 447.406 436.963 419.81 458.581C417.99 459.904 415.791 460.606 413.54 460.581ZM488.9 223.291C486.735 223.31 484.621 222.62 482.883 221.328C481.145 220.036 479.876 218.21 479.27 216.131C476.222 205.757 472.329 195.65 467.63 185.911C466.488 183.492 466.353 180.715 467.255 178.196C468.158 175.678 470.026 173.619 472.445 172.476C474.865 171.333 477.641 171.198 480.16 172.101C482.679 173.004 484.738 174.872 485.88 177.291C490.95 188.038 495.238 199.137 498.71 210.501C499.216 212.201 499.265 214.005 498.85 215.729C498.435 217.454 497.572 219.038 496.348 220.322C495.124 221.606 493.583 222.544 491.88 223.041C490.925 223.258 489.95 223.372 488.97 223.381ZM459.12 160.941C457.488 160.943 455.881 160.546 454.437 159.785C452.994 159.023 451.759 157.92 450.84 156.571C432.193 129.498 407.513 107.119 378.75 91.201C376.894 90.1727 375.411 88.5825 374.514 86.6597C373.617 84.7369 373.351 82.5785 373.756 80.4956C374.16 78.4127 375.214 76.5104 376.765 75.063C378.317 73.6157 380.288 72.6962 382.394 72.4372C384.5 72.1782 386.634 72.5927 388.49 73.621C419.967 91.1008 447.003 115.591 467.5 145.191C468.889 147.216 469.49 149.679 469.192 152.116C468.894 154.552 467.715 156.798 465.88 158.428C464.044 160.058 461.675 160.963 459.22 160.971ZM445.35 228.781C443.254 228.76 441.214 228.093 439.511 226.871C437.807 225.649 436.522 223.93 435.83 221.951C426.623 195.191 410.833 171.17 389.918 152.106C369.003 133.041 343.627 119.538 316.13 112.841C314.009 112.384 312.092 111.254 310.663 109.621C309.235 107.988 308.37 105.937 308.199 103.775C308.027 101.612 308.558 99.4503 309.712 97.6128C310.865 95.7753 312.581 94.3579 314.604 93.5723C316.626 92.7867 318.849 92.674 320.94 93.251C351.754 100.74 380.192 115.865 403.627 137.228C427.062 158.59 444.748 185.511 455.05 215.501C455.63 217.171 455.756 218.964 455.417 220.699C455.078 222.433 454.285 224.047 453.119 225.375C451.953 226.704 450.456 227.699 448.78 228.261C447.694 228.61 446.562 228.799 445.42 228.821ZM246.95 110.501C244.457 110.45 242.07 109.477 240.252 107.77C238.433 106.064 237.311 103.742 237.102 101.258C236.893 98.7729 237.613 96.2968 239.121 94.311C240.629 92.3251 242.821 90.9671 245.27 90.501C257.237 88.4912 269.371 87.6505 281.5 87.991C284.131 88.1082 286.614 89.2521 288.413 91.1756C290.212 93.0991 291.188 95.653 291.129 98.286C291.07 100.919 289.982 103.427 288.099 105.268C286.216 107.109 283.684 108.141 281.05 108.141C270.183 107.824 259.311 108.574 248.59 110.381C248.035 110.473 247.473 110.51 246.91 110.491ZM102.32 247.501C101.569 247.483 100.821 247.41 100.08 247.281C98.3551 246.903 96.7604 246.075 95.4589 244.882C94.1574 243.688 93.195 242.171 92.6702 240.484C92.1453 238.798 92.0763 237.002 92.4704 235.281C99.1548 205.432 113.003 177.652 132.815 154.347C152.628 131.041 177.816 112.903 206.2 101.501C208.179 100.68 210.369 100.512 212.45 101.021C214.53 101.53 216.395 102.69 217.772 104.33C219.149 105.971 219.967 108.01 220.106 110.147C220.246 112.285 219.7 114.412 218.548 116.218C217.396 118.024 215.697 119.416 213.7 120.191C188.33 130.352 165.813 146.544 148.104 167.361C130.396 188.178 118.023 212.999 112.06 239.671C111.581 241.895 110.351 243.887 108.578 245.313C106.805 246.738 104.595 247.511 102.32 247.501ZM98.5004 300.791C95.9706 300.766 93.5383 299.801 91.6797 298.085C89.8211 296.369 88.6659 294.021 88.4404 291.501C87.9904 286.571 87.8804 281.431 87.8804 276.501C87.8804 273.811 87.8804 271.131 87.9904 268.551C88.0854 266.424 88.8518 264.38 90.179 262.715C91.5063 261.05 93.3274 259.847 95.38 259.28C97.4325 258.713 99.6129 258.81 101.607 259.558C103.601 260.306 105.307 261.666 106.481 263.443C107.654 265.22 108.235 267.324 108.14 269.451C108.03 271.801 108.03 274.151 108.03 276.611C108.03 281.091 108.25 285.681 108.59 290.041C108.736 291.811 108.411 293.589 107.648 295.192C106.884 296.796 105.709 298.169 104.243 299.172C102.777 300.174 101.072 300.771 99.3004 300.901C99.0468 300.799 98.772 300.761 98.5004 300.791ZM219.3 455.721C218.195 455.699 217.099 455.51 216.05 455.161C186.596 445.153 160.059 428.035 138.797 405.328C117.534 382.621 102.194 355.018 94.1404 324.971C93.4577 322.389 93.8292 319.638 95.1723 317.33C96.5155 315.021 98.7231 313.339 101.305 312.656C103.888 311.973 106.638 312.345 108.947 313.688C111.255 315.031 112.938 317.239 113.62 319.821C120.795 346.646 134.481 371.29 153.461 391.559C172.441 411.828 196.134 427.102 222.43 436.021C224.106 436.582 225.603 437.578 226.769 438.907C227.935 440.235 228.728 441.849 229.067 443.583C229.406 445.318 229.28 447.111 228.7 448.781C228.101 450.802 226.858 452.573 225.163 453.825C223.467 455.077 221.408 455.743 219.3 455.721ZM266.5 464.791L265.94 464.791C260.397 464.449 254.869 463.888 249.37 463.111C246.728 462.725 244.346 461.304 242.75 459.163C241.155 457.023 240.475 454.333 240.86 451.691C241.246 449.049 242.667 446.666 244.808 445.071C246.949 443.475 249.638 442.795 252.28 443.181C257.21 443.851 262.13 444.411 267.06 444.641C269.704 444.754 272.201 445.903 274.005 447.839C275.809 449.776 276.78 452.346 276.707 454.992C276.633 457.637 275.521 460.15 273.612 461.983C271.703 463.816 269.147 464.825 266.5 464.791ZM297.96 463.791C295.44 463.724 293.036 462.71 291.227 460.954C289.419 459.198 288.336 456.823 288.195 454.306C288.054 451.789 288.865 449.309 290.466 447.362C292.067 445.415 294.344 444.139 296.84 443.791C328.587 440.01 358.59 427.186 383.26 406.851C385.332 405.229 387.957 404.478 390.573 404.761C393.189 405.044 395.594 406.338 397.271 408.365C398.948 410.393 399.768 412.997 399.555 415.62C399.342 418.242 398.112 420.681 396.13 422.411C368.479 445.167 334.863 459.508 299.3 463.721C298.859 463.808 298.41 463.845 297.96 463.831ZM412.59 402.001C410.01 402.019 407.52 401.038 405.646 399.265C403.772 397.491 402.655 395.059 402.531 392.482C402.407 389.904 403.285 387.376 404.98 385.431C408.23 381.621 411.36 377.481 414.27 373.431C415.488 371.693 417.225 370.385 419.231 369.694C421.237 369.004 423.411 368.967 425.44 369.587C427.469 370.208 429.25 371.456 430.526 373.15C431.803 374.845 432.511 376.901 432.547 379.022C432.584 381.144 431.948 383.223 430.73 384.961C427.48 389.551 424.01 394.141 420.32 398.391C419.388 399.533 418.209 400.449 416.872 401.069C415.535 401.689 414.074 401.997 412.6 401.971ZM439.12 360.251C437.695 360.222 436.289 359.916 434.98 359.351C432.572 358.226 430.698 356.2 429.763 353.711C428.829 351.222 428.907 348.463 429.98 346.031C439.924 324.208 445.041 300.493 444.98 276.511C444.961 269.663 444.551 262.822 443.75 256.021C443.617 253.462 444.463 250.947 446.115 248.989C447.767 247.03 450.105 245.773 452.649 245.474C455.194 245.175 457.759 245.856 459.82 247.378C461.881 248.9 463.287 251.151 463.75 253.671C464.656 261.247 465.113 268.871 465.12 276.501C465.203 303.341 459.475 329.884 448.33 354.301C447.541 356.073 446.252 357.578 444.622 358.631C442.992 359.684 441.091 360.24 439.15 360.231ZM396.39 221.981C394.579 221.987 392.799 221.501 391.242 220.575C389.685 219.648 388.409 218.316 387.55 216.721C382.496 207.295 376.251 198.556 368.97 190.721C367.16 188.762 366.2 186.161 366.305 183.495C366.41 180.829 367.571 178.312 369.53 176.501C371.49 174.69 374.091 173.731 376.756 173.836C379.422 173.941 381.94 175.102 383.75 177.061C392.159 186.107 399.381 196.189 405.24 207.061C406.511 209.404 406.805 212.157 406.055 214.715C405.306 217.273 403.574 219.434 401.24 220.721C399.752 221.492 398.106 221.913 396.43 221.951ZM348.59 171.051C346.685 171.07 344.816 170.524 343.22 169.481C323.22 156.984 300.084 150.403 276.5 150.501C253.606 150.508 231.137 156.73 211.5 168.501C209.667 169.666 207.506 170.21 205.34 170.052C203.174 169.895 201.114 169.044 199.469 167.626C197.823 166.208 196.677 164.298 196.2 162.179C195.724 160.06 195.942 157.842 196.823 155.857C197.703 153.871 199.2 152.221 201.09 151.151C224.195 137.25 250.7 130.006 277.664 130.223C304.627 130.44 331.012 138.11 353.89 152.381C356.151 153.799 357.762 156.054 358.37 158.653C358.978 161.251 358.536 163.987 357.14 166.261C356.26 167.731 355.013 168.948 353.521 169.791C352.029 170.634 350.344 171.075 348.63 171.071ZM168.59 203.631C166.072 203.622 163.646 202.669 161.795 200.962C159.943 199.256 158.797 196.915 158.583 194.406C158.37 191.897 159.104 189.396 160.64 187.401C164.096 182.87 167.833 178.562 171.83 174.501C173.686 172.587 176.229 171.487 178.895 171.446C181.561 171.405 184.136 172.425 186.05 174.281C187.964 176.137 189.064 178.68 189.105 181.345C189.147 184.011 188.126 186.587 186.27 188.501C182.852 192.008 179.637 195.708 176.64 199.581C175.694 200.821 174.474 201.827 173.077 202.521C171.679 203.214 170.141 203.577 168.58 203.581ZM146.76 328.111C144.616 328.105 142.528 327.419 140.798 326.153C139.068 324.886 137.784 323.103 137.13 321.061C126.589 288.04 128.095 252.327 141.38 220.311C142.42 217.848 144.397 215.897 146.873 214.89C149.35 213.883 152.127 213.902 154.59 214.941C157.053 215.98 159.005 217.957 160.011 220.434C161.018 222.91 161 225.688 159.96 228.151C148.55 255.765 147.243 286.539 156.27 315.021C157.077 317.558 156.847 320.314 155.632 322.683C154.417 325.052 152.312 326.846 149.78 327.671C148.794 327.935 147.781 328.082 146.76 328.111ZM170.83 372.331C169.331 372.338 167.849 372.011 166.493 371.372C165.137 370.734 163.94 369.801 162.99 368.641C159.396 364.246 156.057 359.649 152.99 354.871C151.644 352.619 151.23 349.928 151.839 347.375C152.447 344.823 154.03 342.608 156.248 341.205C158.465 339.803 161.146 339.323 163.712 339.867C166.279 340.412 168.533 341.939 169.99 344.121C172.597 348.264 175.477 352.23 178.61 355.991C180.274 358.081 181.053 360.742 180.78 363.399C180.507 366.056 179.204 368.503 177.15 370.211C175.285 371.543 173.062 372.285 170.77 372.341ZM276.5 422.701C244.611 422.762 213.569 412.337 188.18 393.041C186.059 391.424 184.666 389.028 184.31 386.384C183.954 383.741 184.663 381.062 186.28 378.941C187.898 376.82 190.294 375.427 192.937 375.071C195.58 374.715 198.259 375.424 200.38 377.041C227.046 397.091 260.561 405.861 293.63 401.441C296.272 401.084 298.95 401.793 301.071 403.409C303.191 405.025 304.584 407.419 304.94 410.061C305.297 412.703 304.589 415.381 302.973 417.501C301.357 419.621 298.962 421.014 296.32 421.371C289.751 422.26 283.129 422.704 276.5 422.701ZM326.43 413.301C324.081 413.3 321.804 412.479 319.995 410.98C318.186 409.482 316.957 407.397 316.519 405.089C316.082 402.781 316.464 400.391 317.6 398.334C318.735 396.278 320.554 394.681 322.74 393.821C331.641 390.286 340.125 385.782 348.04 380.391C349.789 379.181 351.876 378.555 354.002 378.604C356.127 378.653 358.184 379.374 359.874 380.663C361.565 381.952 362.805 383.743 363.416 385.78C364.026 387.817 363.976 389.995 363.273 392.002C362.57 394.008 361.249 395.741 359.5 396.951C350.325 403.226 340.469 408.443 330.12 412.501C328.961 413.025 327.702 413.291 326.43 413.281ZM378.82 376.361C376.394 376.378 374.044 375.502 372.22 373.901C370.22 372.133 369 369.642 368.831 366.977C368.663 364.312 369.558 361.687 371.32 359.681C391.513 336.685 402.658 307.105 402.66 276.501C402.693 266.62 401.528 256.771 399.19 247.171C398.582 244.574 399.03 241.839 400.436 239.573C401.842 237.306 404.094 235.689 406.69 235.081C409.287 234.473 412.022 234.921 414.289 236.327C416.555 237.733 418.172 239.984 418.78 242.581C421.431 253.719 422.747 265.132 422.7 276.581C422.718 312.037 409.819 346.313 386.43 372.961C385.469 374.024 384.295 374.873 382.983 375.452C381.672 376.031 380.254 376.327 378.82 376.321Z" sodipodi:nodetypes="cccccccccccccccccccccccccccccccccccccccccccccccccccccccccccccccccccccccccccccccccccccccccccccccccccccccccccccccccccccccccccccccccccccccccccccccccccccccccccccccccccccccccccccccccccccccccccccccccccccccccccccccccccccccccccccccccccccccccccccccccccccccccccccccccccccccccccccccccccccccccccccccccccccccccccccccccccccccccccccccccccccccccccccccccccccccccccccccccccccccccccccccccccccccccccccccccccccccccccccccccccccccccccccccccccccccccccccccccccccccccccccccccccccccccccccccccccccc"/>
</svg>
